<mxfile host="65bd71144e">
    <diagram id="MjUl1cNmfDegLBFhVLuk" name="第 1 页">
        <mxGraphModel dx="1179" dy="649" grid="0" gridSize="10" guides="1" tooltips="1" connect="1" arrows="1" fold="1" page="1" pageScale="1" pageWidth="650" pageHeight="300" math="0" shadow="0">
            <root>
                <mxCell id="0"/>
                <mxCell id="1" parent="0"/>
                <mxCell id="2" value="&lt;font data-font-src=&quot;https://fonts.googleapis.com/css?family=Linux+Libertine&quot; face=&quot;Linux Libertine&quot; style=&quot;font-size: 12px;&quot;&gt;1&lt;/font&gt;" style="ellipse;whiteSpace=wrap;html=1;aspect=fixed;rounded=1;strokeWidth=1;fillColor=default;gradientColor=none;fillStyle=dashed;" parent="1" vertex="1">
                    <mxGeometry x="26" y="118" width="45" height="45" as="geometry"/>
                </mxCell>
                <mxCell id="3" value="&lt;font data-font-src=&quot;https://fonts.googleapis.com/css?family=Linux+Libertine&quot; face=&quot;Linux Libertine&quot; style=&quot;font-size: 12px;&quot;&gt;2&lt;/font&gt;" style="ellipse;whiteSpace=wrap;html=1;aspect=fixed;rounded=1;strokeWidth=1;" parent="1" vertex="1">
                    <mxGeometry x="116" y="32" width="45" height="45" as="geometry"/>
                </mxCell>
                <mxCell id="4" value="&lt;font data-font-src=&quot;https://fonts.googleapis.com/css?family=Linux+Libertine&quot; face=&quot;Linux Libertine&quot; style=&quot;font-size: 12px;&quot;&gt;4&lt;/font&gt;" style="ellipse;whiteSpace=wrap;html=1;aspect=fixed;rounded=1;strokeWidth=1;" parent="1" vertex="1">
                    <mxGeometry x="105" y="186.5" width="45" height="45" as="geometry"/>
                </mxCell>
                <mxCell id="5" value="&lt;font data-font-src=&quot;https://fonts.googleapis.com/css?family=Linux+Libertine&quot; face=&quot;Linux Libertine&quot; style=&quot;font-size: 12px;&quot;&gt;3&lt;/font&gt;" style="ellipse;whiteSpace=wrap;html=1;aspect=fixed;rounded=1;strokeWidth=1;" parent="1" vertex="1">
                    <mxGeometry x="215" y="122" width="45" height="45" as="geometry"/>
                </mxCell>
                <mxCell id="6" value="" style="endArrow=classic;startArrow=classic;html=1;rounded=1;strokeWidth=2;shadow=0;strokeColor=#4A4A4A;" parent="1" edge="1">
                    <mxGeometry width="50" height="50" relative="1" as="geometry">
                        <mxPoint x="67" y="123" as="sourcePoint"/>
                        <mxPoint x="119" y="70" as="targetPoint"/>
                    </mxGeometry>
                </mxCell>
                <mxCell id="7" value="" style="endArrow=classic;startArrow=classic;html=1;rounded=1;strokeWidth=2;" parent="1" edge="1">
                    <mxGeometry width="50" height="50" relative="1" as="geometry">
                        <mxPoint x="162" y="72" as="sourcePoint"/>
                        <mxPoint x="219" y="128" as="targetPoint"/>
                    </mxGeometry>
                </mxCell>
                <mxCell id="8" value="" style="endArrow=classic;startArrow=classic;html=1;rounded=1;strokeWidth=2;" parent="1" edge="1">
                    <mxGeometry width="50" height="50" relative="1" as="geometry">
                        <mxPoint x="129" y="182" as="sourcePoint"/>
                        <mxPoint x="139" y="80" as="targetPoint"/>
                    </mxGeometry>
                </mxCell>
                <mxCell id="11" value="&lt;font data-font-src=&quot;https://fonts.googleapis.com/css?family=Linux+Libertine&quot; face=&quot;Linux Libertine&quot; style=&quot;font-size: 12px;&quot;&gt;&lt;i&gt;w&lt;sub&gt;24&lt;/sub&gt;=w&lt;sub&gt;42&lt;/sub&gt;&lt;/i&gt;&lt;/font&gt;" style="text;html=1;strokeColor=none;fillColor=none;align=center;verticalAlign=middle;whiteSpace=wrap;rounded=0;strokeWidth=2;" parent="1" vertex="1">
                    <mxGeometry x="128" y="98" width="73" height="48" as="geometry"/>
                </mxCell>
                <mxCell id="23" value="" style="shape=image;verticalLabelPosition=bottom;labelBackgroundColor=default;verticalAlign=top;aspect=fixed;imageAspect=0;image=data:image/png,iVBORw0KGgoAAAANSUhEUgAAAGwAAABGCAYAAAApUXGdAAAMPmlDQ1BJQ0MgUHJvZmlsZQAASImVVwdYU8kWnluSkEBoAQSkhN4EkRpASggt9N5EJSQBQokxEFTs6KKCaxcL2NBVEQUrzYIidhbF3hcLKsq6WLArb1JA133le+f75t7//nPmP2fOnVsGALXjHJEoD1UHIF9YKI4N9qcnp6TSSU8BAoiABEYDSw63QMSMjg4H0IbOf7d316E3tCv2Uq1/9v9X0+DxC7gAINEQZ/AKuPkQHwQAr+KKxIUAEKW82ZRCkRTDBrTEMEGIF0pxlhxXSXGGHO+V+cTHsiBuB0BJhcMRZwGgegny9CJuFtRQ7YfYUcgTCAFQo0Psk58/iQdxOsTW0EcEsVSfkfGDTtbfNDOGNTmcrGEsn4vMlAIEBaI8zrT/sxz/2/LzJEMxLGFTyRaHxErnDOt2M3dSmBSrQNwnzIiMglgT4g8CnswfYpSSLQlJkPujBtwCFqwZ0IHYkccJCIPYAOIgYV5kuILPyBQEsSGGKwSdKihkx0OsC/FCfkFgnMJns3hSrCIW2pApZjEV/FmOWBZXGuu+JDeBqdB/nc1nK/Qx1eLs+CSIKRCbFwkSIyFWhdihIDcuTOEztjibFTnkI5bESvM3hziWLwz2l+tjRZnioFiFf1l+wdB8sc3ZAnakAu8vzI4PkdcHa+dyZPnDuWCX+EJmwpAOvyA5fGguPH5AoHzu2DO+MCFOofNBVOgfKx+LU0R50Qp/3JSfFyzlTSF2KSiKU4zFEwvhgpTr45miwuh4eZ54cQ4nNFqeD74MhAMWCAB0IIEtA0wCOUDQ2dfYB6/kPUGAA8QgC/CBvYIZGpEk6xHCYxwoBn9CxAcFw+P8Zb18UAT5r8Os/GgPMmW9RbIRueAJxPkgDOTBa4lslHA4WiJ4DBnBP6JzYOPCfPNgk/b/e36I/c4wIROuYCRDEelqQ57EQGIAMYQYRLTB9XEf3AsPh0c/2JxwBu4xNI/v/oQnhC7CQ8I1Qjfh1kRBifinLCNAN9QPUtQi48da4JZQ0xX3x72hOlTGdXB9YI+7wDhM3BdGdoUsS5G3tCr0n7T/NoMf7obCj+xIRskjyH5k659Hqtqqug6rSGv9Y33kuWYM15s13PNzfNYP1efBc9jPnthC7AB2BjuBncOOYI2AjrViTVgHdlSKh1fXY9nqGooWK8snF+oI/hFv6M5KK1ngWOvY6/hF3lfInyp9RwPWJNE0sSAru5DOhF8EPp0t5DqMojs5OjkDIP2+yF9fb2Jk3w1Ep+M7N+8PALxbBwcHD3/nQlsB2OcOH//m75w1A346lAE428yViIvkHC49EOBbQg0+aXrACJgBazgfJ+AGvIAfCAShIArEgxQwAWafDde5GEwBM8BcUArKwTKwGqwHm8BWsBPsAftBIzgCToDT4AK4BK6BO3D19IAXoB+8A58RBCEhVISG6CHGiAVihzghDMQHCUTCkVgkBUlHshAhIkFmIPOQcmQFsh7ZgtQg+5Bm5ARyDulCbiEPkF7kNfIJxVAVVAs1RC3R0SgDZaJhaDw6Hs1CJ6PF6Hx0CboWrUZ3ow3oCfQCeg3tRl+gAxjAlDEdzASzxxgYC4vCUrFMTIzNwsqwCqwaq8Na4H2+gnVjfdhHnIjTcDpuD1dwCJ6Ac/HJ+Cx8Mb4e34k34O34FfwB3o9/I1AJBgQ7gieBTUgmZBGmEEoJFYTthEOEU/BZ6iG8IxKJOkQrojt8FlOIOcTpxMXEDcR64nFiF/ERcYBEIumR7EjepCgSh1RIKiWtI+0mtZIuk3pIH5SUlYyVnJSClFKVhEolShVKu5SOKV1Weqr0maxOtiB7kqPIPPI08lLyNnIL+SK5h/yZokGxonhT4ik5lLmUtZQ6yinKXcobZWVlU2UP5RhlgfIc5bXKe5XPKj9Q/qiiqWKrwlJJU5GoLFHZoXJc5ZbKGyqVakn1o6ZSC6lLqDXUk9T71A+qNFUHVbYqT3W2aqVqg+pl1ZdqZDULNabaBLVitQq1A2oX1frUyeqW6ix1jvos9Ur1ZvUb6gMaNI0xGlEa+RqLNXZpnNN4pknStNQM1ORpztfcqnlS8xENo5nRWDQubR5tG+0UrUeLqGWlxdbK0SrX2qPVqdWvrantop2oPVW7UvuodrcOpmOpw9bJ01mqs1/nus6nEYYjmCP4IxaNqBtxecR73ZG6frp83TLdet1rup/06HqBerl6y/Ua9e7p4/q2+jH6U/Q36p/S7xupNdJrJHdk2cj9I28boAa2BrEG0w22GnQYDBgaGQYbigzXGZ407DPSMfIzyjFaZXTMqNeYZuxjLDBeZdxq/JyuTWfS8+hr6e30fhMDkxATickWk06Tz6ZWpgmmJab1pvfMKGYMs0yzVWZtZv3mxuYR5jPMa81vW5AtGBbZFmsszli8t7SyTLJcYNlo+cxK14ptVWxVa3XXmmrtaz3Zutr6qg3RhmGTa7PB5pItautqm21baXvRDrVzsxPYbbDrGkUY5TFKOKp61A17FXumfZF9rf0DBx2HcIcSh0aHl6PNR6eOXj76zOhvjq6OeY7bHO+M0RwTOqZkTMuY1062TlynSqerzlTnIOfZzk3Or1zsXPguG11uutJcI1wXuLa5fnVzdxO71bn1upu7p7tXud9gaDGiGYsZZz0IHv4esz2OeHz0dPMs9Nzv+ZeXvVeu1y6vZ2OtxvLHbhv7yNvUm+O9xbvbh+6T7rPZp9vXxJfjW+370M/Mj+e33e8p04aZw9zNfOnv6C/2P+T/nuXJmsk6HoAFBAeUBXQGagYmBK4PvB9kGpQVVBvUH+waPD34eAghJCxkecgNtiGby65h94e6h84MbQ9TCYsLWx/2MNw2XBzeEoFGhEasjLgbaREpjGyMAlHsqJVR96KtoidHH44hxkTHVMY8iR0TOyP2TBwtbmLcrrh38f7xS+PvJFgnSBLaEtUS0xJrEt8nBSStSOpOHp08M/lCin6KIKUplZSamLo9dWBc4LjV43rSXNNK066Ptxo/dfy5CfoT8iYcnag2kTPxQDohPSl9V/oXThSnmjOQwc6oyujnsrhruC94frxVvF6+N38F/2mmd+aKzGdZ3lkrs3qzfbMrsvsELMF6wauckJxNOe9zo3J35A7mJeXV5yvlp+c3CzWFucL2SUaTpk7qEtmJSkXdkz0nr57cLw4Tby9ACsYXNBVqwR/5Dom15BfJgyKfosqiD1MSpxyYqjFVOLVjmu20RdOeFgcV/zYdn86d3jbDZMbcGQ9mMmdumYXMypjVNtts9vzZPXOC5+ycS5mbO/f3EseSFSVv5yXNa5lvOH/O/Ee/BP9SW6paKi69scBrwaaF+ELBws5FzovWLfpWxis7X+5YXlH+ZTF38flfx/y69tfBJZlLOpe6Ld24jLhMuOz6ct/lO1dorChe8WhlxMqGVfRVZaverp64+lyFS8WmNZQ1kjXda8PXNq0zX7ds3Zf12euvVfpX1lcZVC2qer+Bt+HyRr+NdZsMN5Vv+rRZsPnmluAtDdWW1RVbiVuLtj7ZlrjtzG+M32q2628v3/51h3BH987Yne017jU1uwx2La1FayW1vbvTdl/aE7Cnqc6+bku9Tn35XrBXsvf5vvR91/eH7W87wDhQd9DiYNUh2qGyBqRhWkN/Y3Zjd1NKU1dzaHNbi1fLocMOh3ccMTlSeVT76NJjlGPzjw22FrcOHBcd7zuRdeJR28S2OyeTT15tj2nvPBV26uzpoNMnzzDPtJ71PnvknOe55vOM840X3C40dLh2HPrd9fdDnW6dDRfdLzZd8rjU0jW269hl38snrgRcOX2VffXCtchrXdcTrt+8kXaj+ybv5rNbebde3S66/fnOnLuEu2X31O9V3De4X/2HzR/13W7dRx8EPOh4GPfwziPuoxePCx5/6Zn/hPqk4qnx05pnTs+O9Ab1Xno+7nnPC9GLz32lf2r8WfXS+uXBv/z+6uhP7u95JX41+HrxG703O966vG0biB64/y7/3ef3ZR/0Puz8yPh45lPSp6efp3whfVn71eZry7ewb3cH8wcHRRwxR/YrgMGGZmYC8HoHANQUAGhwf0YZJ9//yQyR71llCPwnLN8jyswNgDr4/x7TB/9ubgCwdxvcfkF9tTQAoqkAxHsA1Nl5uA3t1WT7SqkR4T5gc+zXjPwM8G9Mvuf8Ie+fz0Cq6gJ+Pv8Lfwd8b4v0lEIAAACKZVhJZk1NACoAAAAIAAQBGgAFAAAAAQAAAD4BGwAFAAAAAQAAAEYBKAADAAAAAQACAACHaQAEAAAAAQAAAE4AAAAAAAAAkAAAAAEAAACQAAAAAQADkoYABwAAABIAAAB4oAIABAAAAAEAAABsoAMABAAAAAEAAABGAAAAAEFTQ0lJAAAAU2NyZWVuc2hvdAzd3qQAAAAJcEhZcwAAFiUAABYlAUlSJPAAAAHVaVRYdFhNTDpjb20uYWRvYmUueG1wAAAAAAA8eDp4bXBtZXRhIHhtbG5zOng9ImFkb2JlOm5zOm1ldGEvIiB4OnhtcHRrPSJYTVAgQ29yZSA2LjAuMCI+CiAgIDxyZGY6UkRGIHhtbG5zOnJkZj0iaHR0cDovL3d3dy53My5vcmcvMTk5OS8wMi8yMi1yZGYtc3ludGF4LW5zIyI+CiAgICAgIDxyZGY6RGVzY3JpcHRpb24gcmRmOmFib3V0PSIiCiAgICAgICAgICAgIHhtbG5zOmV4aWY9Imh0dHA6Ly9ucy5hZG9iZS5jb20vZXhpZi8xLjAvIj4KICAgICAgICAgPGV4aWY6UGl4ZWxZRGltZW5zaW9uPjcwPC9leGlmOlBpeGVsWURpbWVuc2lvbj4KICAgICAgICAgPGV4aWY6UGl4ZWxYRGltZW5zaW9uPjEwODwvZXhpZjpQaXhlbFhEaW1lbnNpb24+CiAgICAgICAgIDxleGlmOlVzZXJDb21tZW50PlNjcmVlbnNob3Q8L2V4aWY6VXNlckNvbW1lbnQ+CiAgICAgIDwvcmRmOkRlc2NyaXB0aW9uPgogICA8L3JkZjpSREY+CjwveDp4bXBtZXRhPgrNkCzTAAAAHGlET1QAAAACAAAAAAAAACMAAAAoAAAAIwAAACMAAAlCMjmuLAAACQ5JREFUeAHsm3lPG9kSxcsLCYR9M2DWQFYpM8n3/wLJ5P2ReaMkQwJZABvM4gUbs9hg5vzKvgxCTxGel9gexS013Tjd7rp16pw69zaJvP3jj8tIJGLssVjs7z0evzqP9/RYXL+z37lzxz+PRqPW3VqfgcjWxsZlVEBFAU0ghHMA8XMdY43zAGgXrNYDFZ4YOSwULgECsALTwpGLwnk4dsEKqWvPMVKtVJxhAZD2hNF96m0zELms1S5Fo9te372uzRmIXGprcwzdxzeRgS5gTSSrEy7tAtYJKDQRQxewJpLVCZd2AesEFJqIoQtYE8nqhEu7gHUCCk3E0AWsiWR1wqVdwDoBhSZi+CkBC2sFHMN+M2cs1YUtLNtd/yz8W6uPPx1gAFStVq1SqdjZ6amd6cjvFxcXJvRY7TYWuHlDEWu8YurR66W7d+/6ziumdm4/FWABrKPykRXyBTvYP7Di4aHx+6nAq9Vq/q6Pd34AxLG3t9f6+/ttYmLCxsbH/fxfBViQEAZ3ffdBhGXJhpyEd2z++qZRua2WFeINccKk4+Njy+Vztru7a+nNlEDbt8JhwT+/0JhgU19fn927d88B43xkeNgWl5ZsYWHBxgVcO18x3ZphASikg4GfnZ3Z6cmJVybnJIVr2OqaH9WAJSWqUAbfDkkhHuI9Oz2z8nHZSqWSFQoFy2azdnBwYPu7e/57WQxDIok+sApm6U2Gv2UfHBy0lQcP7MHDhzY7O+uA+kDb8KMpwM7Pz61cLtuhZIRB72xvW2YnY/lC3s4FItVJ9XkPiMVtcHDAZWRqaupKUoZVra1iGYVFvMS5m9m1vb092xejkMBqpepx+J8+9MQ9duIPYwBswIWRxLu4uGgPBNq8WDYyMnLVz1o1llAbtwYMBlUFGINg0NvptK1/XLP19XXLZDJi3KndaQBGpQLayPCITc9M24IGOzc359U5NT1dH2zjLTfX1Rn5tysLwf3TY2AWyUby1tbWbHNjU8W1Y9lczlkHg+hLo2NjNjQ8ZAPqU7CLWChM7k2nJJliIsYEOQQwpJH7BgYGfBwdDRgDyefztqckpLe27M8/V+3D6qqldE7Vsl3oGiq7dlETwwZtanrKFu/ft4X5ea9OJGVMSaKRI5M9SlKo6u8xeMAizhPJNb0qvZWyVcW5pRizSv6JzAXPHZeBWFhcUHwzNjo6KgD63Rki70hnXsB+/frVMup1GBIY9uTJE1teWXHAGBvf8z1ibqYwb80wEgHLkJhiseiSuLmxYRsaVKpRibCvIEABtVQsOcsGJIuTkwntkzaZmDTkEZYlBdzMzIw38eGhIXdjsO3/3ehZJHxnZ9sZsiXANjc35QaL/tWjkrMJxcGz51VEIwILtrExtv29fb93WzIKwwqSf0B5+vSpPX/xwh49euSSSJEFM+U3t+jHrQEjHkDz+Yuq8OjoSIPbU2/IuCTiunYkOcgjnyGbp2r2CB3GA0YNDg16NQPYkqTlvpiXlFROJRJGb8ORkQSAC+A1W8Gwm2d//PjRPkmuSTr9tqbYKYyV5RWbW5h3wCb1XDcX+rcTd495Sf22FyB9LyeWwbjevl579uyZPX/+3M0HJipIeYtwunpMU4BxFyyjigHuSJWsv7ryge1LbhgkoPmuc2da6chliEkpDR5QxsbH1NPmXZJmQ28T85BKegPX0E8CeFfR3uKEBMP4//7+u61KronpVJ/xnbDq119+8Z6KPQcsxkK/Qh1yAhawswdZN1bVasVjGBLQD8Wsx5JEJB12tWtrGjBYxs5Ar9t7Bo1UAhKNHtBCtdI/igKXZMI4/jCVKqXimYzOq+IxJXOSKI7IJn2Fa5qVHfrN1y9f7PXr1/b+/XuPhULh+3B4LyRrCX0/nxEvLIKBHMtSDbw9gPSJVQA1LAnFmPjEuVFQgf3tAK1pwAgSwNhgW2BcAJBmX1IisNBU+hclD3miculrJLQi4ACP70EuqXyAmpcJWFleduAADfsc2EaCg1R+SyYpnDU979WrV/b+3TsHo7e3r24yBNgzMQwmE29mty7dmBHAwzBhJgAHUKcl3ZiTIck1BiOw/lvP98T8wB//CLBvxUMiAAOppK/Brs8CjX4H+2j+GBMAzesa5m8jI6MyH+PuKAEuOZN0Y5KQOXDbrUq/LpXBVd6Mg+Kht+JcX758ae8EGGyPx3uczdMqDDcNYhvFwvwRg8ICwLniZloyLjAdLF1Lb8WUUDSdsn13wBgYyYBJ7ijlsnICCJDYs9mc4cA+f/7s7o2+EY3GZO97vKe4VKqiqezkbNJ7xowqnSTSd5CpMCW4Xuk8E4mmF3348MH+8+o3e/v2raW302J0xWUYY4PsAgrfEdeEGebc07nLHxKoazgfZG/MtfiT9U7ZfghgDO6mVMI6pJJ+gXNzF/fpk8Db8abP8lGlouUuXYf0DQz0uyS5VHpvk7MTgEwPkMowDwr9BJkt4VzFqHVNlN+8eePzr7Qm+Mey6/Lm3hOR2oSYMzE5YZMqAL4P14r80U/7JNHhP3+E/nm9MNoN3A8D7ObAABDWlUpFn+sw2d4ScEwDWDlnuQt2HMihYbEvL2te+eNylMzj6HM+d0tKqpR0+kwwJXw3xbCv1fdtMQr2IousbiC7bMga0jsr0Fl9CcA5aAIQi08R0Cs7CaCbeWwZYDy4Vqs7S6SyDlAdJGSRJSD6Gs6SxBeLh75oG4mKGUo2bi2hVRNsNRNejsgaLND/D/D706m0bWgyz0TZJ70CCzBhDgBxz/LKsiWTSTFMTJX80RsBql9HemMng0UOWwoYD6TXsAfJZBkJmcQcsAyU2kr5OiV9Dvbh3uhNVD5rfr5CIbcHaABGgnkRyeIuYLHysivguY/nMHVgOYl1QPbHTx7bjABjxQOHyv3IKsdOB6stgPHQ6xtJxYqHVx85mRL6EA4zldqyvcYrEKYLbP3qbfQwrHlMZuX8or5uiKxiz1k/xGRE4zE3DTCLSe+KQFta0pqmpg5hjhf63/V4Ov285Qz7XwkJczh6nLvLo3J94VY9DtPAJBwQkVEYCRN6ZNXDxB0weVtwJqB4h8VSEoAmZCQwLQ/1HovVdqYLTB/ofTD237j9BQAA//96v3zvAAAI8ElEQVTtmWlPYtkWhheiKKgggooD4tDevmkrlfpQ3f//P9xOKnXtcp4FxXli6PdZsjuk6A9ql3I64SRH5HCAvdez1rvevYk1dVjEjnq9bjc3N7a/v28729u2tbWlc9N2d3ft7OzMLi+v7O721m5vbu3u7s7u7u+try9mA4mEjQwPWz6ft7li0Yrz81YqlWxpacmmp6dtfHzcUqmUDQwM6P6+iM36ecOJRQkYuXOv4F9dXTkYgO3u7LSgbdre3r5Vz6uCdWf1Wt2DHo/HLd7fb81mQ2fTr6VSw5bL52xqasrm5uZs+aefrFic8+fZ7Lglk0nr13v+jUckgDUU6Nrjo1dLuVy2k5MTOzo6sqPDQzs42Ld9gQJe+aRst3e3ZtKEhKopk0lbZmzMRtNpf//19Y1dX18bFQqQkZERm5ycsOXlZSstLKjq5mxmZsbG9J5kMvWvhNYVYFRCo9Hwk+A+CtaVAn12emrbkkCk72Bvz8FVKhU71XWkEAmMxWIuawR9embapS4vKPd391apnNrJ8bHfe3V1ac1G04YlkaXSvOSxaPOSyIXFRZtU5QVoSGP7yedH+Xh3YMCq1Wp2qx6E9F1eXlq1eu5QTk6ObQ9YBwce+Gq1Kkg39iCgBHIwMWijo6PeiyYmJ1Ut0zZVKLj8AezsrGrHAkZlUqEXF+fWqDdUacMOKD+Rt9nZWQeWy+X9GlWYElR6G1VLf0Nmo3q8K7AAC0hIX5C9/f0DDzLBrlTKdn5+ble6B6ixWJ9XCT1penrGKwoDAaiJiQnLZsdsWEGnUkkAqvFQwKlUZPS0XFH1XvnricSAQxofz1le7y2o0njEpIzncpLYjH/X4OBgZKG9KTAAEUjO2mNNbu7OrhXUioJ6gKGQ7FFRO9s7dqiqINj3cn31es0NBFUFDMDMt9wezo8+NDU5ZWn1sOD6+K6HhweHBnic5fb2lhsWPp/PxlHG4yTAiOUEiM8pCH5B8JHJnFwk/RBTAjSqbUC9kH4Yk3RGQS7fFBi9CdeHETiX7JXLT2aCPnOk8xhjoRMJPDtVj1JFDQ0NSaJSLn1p5E+BpaIARg8iwFRENpv1e9vdHtD4TiqUz93b27VtgVv7/5r3RcwMY+lTIozos3GRgEJeATimCkMeAUYi8B1UHTKcYCkgqew2tDcB1pDFflRFIVFVmQUyHnu+sb5h69+++XNk6lb23HuZ5A+XSA8ByIz6DL2Gx8K0sr8V0CBZBJR76TXt6ymABWhUUxVwSoa1tTXb3NhwmaSiWePx3kwLCH1sWIBIFj6vX3CSek6CzGs9x1gAzOvtCdKNPvcqYASFIwQoOD6yO1QVsHB2ZWU18re1te2w1tfX/Xq9UfegxeOSG33WkCRoTP2otLDoFpwF77zcHVVApgfp83VXK9P/Ltvbx+bQZFy+/fGH8b0bOnmkAnlvulU9LoFKAGBhcOoyRaztkMyigLEIJ2lYeOM6u2lKXgwsQGrKltd14vjoHfQerPnFxcUTKJmKSmtNhfQdHrCmOlR1HamX3KtHJNSfhi2dzsgIZFySphQUpG92rijLjsEo/AXrNUEKbnRD1UWFbW5uGv+TTMgbMphRzwICPYs5XajamQOVD8iMxjehZcOCJ1LJwVFpf5csnsVv/OfFwBotE4GRABTy4tKnTKZH0I9YR7GlhBRWZbVxhfQyjAfHoCbMojcv54fbW9CitljETGj7iCAq85GgYLWB9ZoAUe30rB3JMY6RsWFukF96FRWEoaFykEWUgjHvtcwQywPmFu8fsNXVVfv06ZOt/GdFSZb2KmNMrxnXP2H6bGChspgsoLz30KMEyqVP1UQw2JVwYAoSC2ECxnsGZKlxZ2NjWcuOZ5Xd4x4sgraovT6kBwMQINErAIVMvTYoVBgJhQEBRDgBSfW46RAwTAfQ+C6SDqOCdH79+tXn8/D4YB8/frRff/3Nfln9xSuTHvpPxvZaaC8CRlWx6equT32AtRSQkLwT5O/4xIPCApjXbrRVxJ4fVpotpEKBvb2iqupp/TMht/e0AFamK2hUlltoZe6POIIKkFDY+qAAjJ8kwP1h5TE6OFEg0t+oMCT09//97jKKQaLCPn/+LGCrnmjc+yPH+tz5PhsYckFmhh5F1iJ79AScF1tIvEYw2JytCRRBIROTqaQCMmWLi0u2srLirisnWGwPIX1Mnh7yowOAKjBu5BglYMyb6mOAQ6YfpRRI4aw2iNnRp6ehBtxLIn758sWdJfcuLS3bhw8fXBKRUbf6mttrq/+5gL6/70XAkMLvgSEfvo5ir0/Vxz11bQfF++IOgTVVOjPqGVwqLXhg6FtUU0qgcGOhRyExP/oI0OhFgAIY48UQAYbFMQ6QzWEqHgDMg0ojGQHH8/n5kv3835+VdIsONkh3pIGFJh6gIYX0BeSGrSR+l6Jv4Pr7ZdepnNHREe9Z7OMRmEntUDxtvL7vTxxu8ZVU7K64jAsEFYdsUuWMjXGRPNh65gJg5kqVsszgZxrWZpiOsOcYSWDBcISeQMZx0tDDSUCoLoCx4coeIMDS6VEHxg+LSOPQULIrkyXZ2Eimt7I2BBaVRuURdJdlFsYCpgu+xmROzBm5XlAFYo7oddj6bh3PkkSAcZBpAOFkIpzhGgH56zUtiq2p3XVNlDUO0JC74KoI0HtnJssREop+dC4ppOcCjQpisczhY9TY/BFwOqgk9jP5IZQdD9zke4/dB9L68yxg3NsODUic4eC1AM8fm3oNWdT6JaEFMrsY3T7CGDEgVBqb0OeChUJgPtgEaJ8TC2tM0KCMBWs2QHnf1ZZVN49nA2OQAVp4bB8419pPXgtVxWMUDsbnyiCFQBGoLFxhDaVoKQav+/xUaVQXLhelQAbD/mU35/IiYN0c6Ft+twPSFwAryD3fBzCqLCoJx5h6wIhC6wBcu9yH5UY3e1YYW3jsAQuRaIPGv8Drhjn6bjgdT3vAOkIS7Qs9YNHm0zG6HrCOkET7Qg9YtPl0jK4HrCMk0b7QAxZtPh2j6wHrCEm0L/SARZtPx+h6wDpCEu0LPWDR5tMxuh6wjpBE+8KfXMbw1PrRgjAAAAAASUVORK5CYII=;rotation=-180;strokeWidth=2;" parent="1" vertex="1">
                    <mxGeometry x="268" y="57.69999999999999" width="58" height="37.6" as="geometry"/>
                </mxCell>
                <mxCell id="24" value="" style="ellipse;whiteSpace=wrap;html=1;rounded=1;fillColor=none;rotation=35;strokeWidth=1;strokeColor=#003366;" parent="1" vertex="1">
                    <mxGeometry x="335.15" y="134.96" width="205.72" height="90" as="geometry"/>
                </mxCell>
                <mxCell id="25" value="" style="ellipse;whiteSpace=wrap;html=1;rounded=1;fillColor=none;rotation=45;strokeWidth=1;strokeColor=#003366;" parent="1" vertex="1">
                    <mxGeometry x="442.36" y="60.78" width="200.01" height="97.88" as="geometry"/>
                </mxCell>
                <mxCell id="26" value="&lt;font style=&quot;font-size: 12px;&quot;&gt;&lt;i&gt;&lt;font data-font-src=&quot;https://fonts.googleapis.com/css?family=Linux+Libertine&quot; face=&quot;Linux Libertine&quot; style=&quot;font-size: 12px;&quot;&gt;w&lt;/font&gt;&lt;font data-font-src=&quot;https://fonts.googleapis.com/css?family=Linux+Libertine&quot; face=&quot;Linux Libertine&quot; style=&quot;font-size: 12px;&quot;&gt;&lt;sub&gt;12&lt;/sub&gt;&lt;/font&gt;&lt;font data-font-src=&quot;https://fonts.googleapis.com/css?family=Linux+Libertine&quot; face=&quot;Linux Libertine&quot; style=&quot;font-size: 12px;&quot;&gt;=w&lt;sub style=&quot;&quot;&gt;21&lt;/sub&gt;&lt;/font&gt;&lt;/i&gt;&lt;/font&gt;" style="text;html=1;strokeColor=none;fillColor=none;align=center;verticalAlign=middle;whiteSpace=wrap;rounded=0;strokeWidth=2;" parent="1" vertex="1">
                    <mxGeometry x="15" y="52.5" width="97" height="48" as="geometry"/>
                </mxCell>
                <mxCell id="28" value="&lt;font data-font-src=&quot;https://fonts.googleapis.com/css?family=Linux+Libertine&quot; face=&quot;Linux Libertine&quot; style=&quot;font-size: 12px;&quot;&gt;&lt;i&gt;w&lt;sub&gt;23&lt;/sub&gt;=w&lt;sub&gt;32&lt;/sub&gt;&lt;/i&gt;&lt;/font&gt;" style="text;html=1;strokeColor=none;fillColor=none;align=center;verticalAlign=middle;whiteSpace=wrap;rounded=0;strokeWidth=2;" parent="1" vertex="1">
                    <mxGeometry x="199" y="59" width="56" height="48" as="geometry"/>
                </mxCell>
                <mxCell id="44" value="" style="curved=1;endArrow=none;html=1;fontSize=18;endFill=0;strokeColor=#FF0080;strokeWidth=2;" parent="1" edge="1">
                    <mxGeometry width="50" height="50" relative="1" as="geometry">
                        <mxPoint x="329" y="77" as="sourcePoint"/>
                        <mxPoint x="563" y="251" as="targetPoint"/>
                        <Array as="points">
                            <mxPoint x="405.51" y="83.00000000000003"/>
                            <mxPoint x="489" y="144"/>
                            <mxPoint x="549.51" y="212.5"/>
                        </Array>
                    </mxGeometry>
                </mxCell>
                <mxCell id="45" value="&lt;font style=&quot;font-size: 18px;&quot; data-font-src=&quot;https://fonts.googleapis.com/css?family=Linux+Libertine&quot; face=&quot;Linux Libertine&quot;&gt;(a)&lt;/font&gt;" style="text;html=1;strokeColor=none;fillColor=none;align=center;verticalAlign=middle;whiteSpace=wrap;rounded=0;" parent="1" vertex="1">
                    <mxGeometry x="112" y="265" width="60" height="30" as="geometry"/>
                </mxCell>
                <mxCell id="46" value="&lt;font style=&quot;font-size: 18px;&quot; data-font-src=&quot;https://fonts.googleapis.com/css?family=Linux+Libertine&quot; face=&quot;Linux Libertine&quot;&gt;(b)&lt;/font&gt;" style="text;html=1;strokeColor=none;fillColor=none;align=center;verticalAlign=middle;whiteSpace=wrap;rounded=0;" parent="1" vertex="1">
                    <mxGeometry x="484" y="265" width="60" height="30" as="geometry"/>
                </mxCell>
                <mxCell id="48" value="&lt;font data-font-src=&quot;https://fonts.googleapis.com/css?family=Linux+Libertine&quot; face=&quot;Linux Libertine&quot; style=&quot;font-size: 12px;&quot;&gt;1&lt;/font&gt;" style="ellipse;whiteSpace=wrap;html=1;aspect=fixed;rounded=1;strokeWidth=1;fillColor=default;gradientColor=none;fillStyle=dashed;" vertex="1" parent="1">
                    <mxGeometry x="378" y="123" width="45" height="45" as="geometry"/>
                </mxCell>
                <mxCell id="49" value="&lt;font data-font-src=&quot;https://fonts.googleapis.com/css?family=Linux+Libertine&quot; face=&quot;Linux Libertine&quot; style=&quot;font-size: 12px;&quot;&gt;2&lt;/font&gt;" style="ellipse;whiteSpace=wrap;html=1;aspect=fixed;rounded=1;strokeWidth=1;" vertex="1" parent="1">
                    <mxGeometry x="468" y="37" width="45" height="45" as="geometry"/>
                </mxCell>
                <mxCell id="50" value="&lt;font data-font-src=&quot;https://fonts.googleapis.com/css?family=Linux+Libertine&quot; face=&quot;Linux Libertine&quot; style=&quot;font-size: 12px;&quot;&gt;4&lt;/font&gt;" style="ellipse;whiteSpace=wrap;html=1;aspect=fixed;rounded=1;strokeWidth=1;" vertex="1" parent="1">
                    <mxGeometry x="457" y="191.5" width="45" height="45" as="geometry"/>
                </mxCell>
                <mxCell id="51" value="&lt;font data-font-src=&quot;https://fonts.googleapis.com/css?family=Linux+Libertine&quot; face=&quot;Linux Libertine&quot; style=&quot;font-size: 12px;&quot;&gt;3&lt;/font&gt;" style="ellipse;whiteSpace=wrap;html=1;aspect=fixed;rounded=1;strokeWidth=1;" vertex="1" parent="1">
                    <mxGeometry x="567" y="127" width="45" height="45" as="geometry"/>
                </mxCell>
                <mxCell id="52" value="" style="endArrow=classic;startArrow=classic;html=1;rounded=1;strokeWidth=1;shadow=0;strokeColor=#B3B3B3;dashed=1;" edge="1" parent="1">
                    <mxGeometry width="50" height="50" relative="1" as="geometry">
                        <mxPoint x="419" y="128" as="sourcePoint"/>
                        <mxPoint x="471" y="74.99999999999989" as="targetPoint"/>
                    </mxGeometry>
                </mxCell>
                <mxCell id="53" value="" style="endArrow=classic;startArrow=classic;html=1;rounded=1;strokeWidth=2;" edge="1" parent="1">
                    <mxGeometry width="50" height="50" relative="1" as="geometry">
                        <mxPoint x="514" y="77.00000000000011" as="sourcePoint"/>
                        <mxPoint x="571" y="133" as="targetPoint"/>
                    </mxGeometry>
                </mxCell>
                <mxCell id="54" value="" style="endArrow=classic;startArrow=classic;html=1;rounded=1;strokeWidth=1;dashed=1;strokeColor=#B3B3B3;" edge="1" parent="1">
                    <mxGeometry width="50" height="50" relative="1" as="geometry">
                        <mxPoint x="481" y="187" as="sourcePoint"/>
                        <mxPoint x="491" y="84.99999999999989" as="targetPoint"/>
                    </mxGeometry>
                </mxCell>
                <mxCell id="55" value="&lt;font data-font-src=&quot;https://fonts.googleapis.com/css?family=Linux+Libertine&quot; face=&quot;Linux Libertine&quot; style=&quot;font-size: 12px;&quot;&gt;&lt;i&gt;w&lt;sub&gt;24&lt;/sub&gt;=w&lt;sub&gt;42&lt;/sub&gt;&lt;/i&gt;&lt;/font&gt;" style="text;html=1;strokeColor=none;fillColor=none;align=center;verticalAlign=middle;whiteSpace=wrap;rounded=0;strokeWidth=2;" vertex="1" parent="1">
                    <mxGeometry x="480" y="103" width="73" height="48" as="geometry"/>
                </mxCell>
                <mxCell id="56" value="&lt;font style=&quot;font-size: 12px;&quot;&gt;&lt;i&gt;&lt;font data-font-src=&quot;https://fonts.googleapis.com/css?family=Linux+Libertine&quot; face=&quot;Linux Libertine&quot; style=&quot;font-size: 12px;&quot;&gt;w&lt;/font&gt;&lt;font data-font-src=&quot;https://fonts.googleapis.com/css?family=Linux+Libertine&quot; face=&quot;Linux Libertine&quot; style=&quot;font-size: 12px;&quot;&gt;&lt;sub&gt;12&lt;/sub&gt;&lt;/font&gt;&lt;font data-font-src=&quot;https://fonts.googleapis.com/css?family=Linux+Libertine&quot; face=&quot;Linux Libertine&quot; style=&quot;font-size: 12px;&quot;&gt;=w&lt;sub style=&quot;&quot;&gt;21&lt;/sub&gt;&lt;/font&gt;&lt;/i&gt;&lt;/font&gt;" style="text;html=1;strokeColor=none;fillColor=none;align=center;verticalAlign=middle;whiteSpace=wrap;rounded=0;strokeWidth=2;" vertex="1" parent="1">
                    <mxGeometry x="373" y="56.81" width="97" height="48" as="geometry"/>
                </mxCell>
                <mxCell id="57" value="&lt;font data-font-src=&quot;https://fonts.googleapis.com/css?family=Linux+Libertine&quot; face=&quot;Linux Libertine&quot; style=&quot;font-size: 12px;&quot;&gt;&lt;i&gt;w&lt;sub&gt;23&lt;/sub&gt;=w&lt;sub&gt;32&lt;/sub&gt;&lt;/i&gt;&lt;/font&gt;" style="text;html=1;strokeColor=none;fillColor=none;align=center;verticalAlign=middle;whiteSpace=wrap;rounded=0;strokeWidth=2;" vertex="1" parent="1">
                    <mxGeometry x="533" y="66" width="56" height="48" as="geometry"/>
                </mxCell>
            </root>
        </mxGraphModel>
    </diagram>
</mxfile>